<svg xmlns="http://www.w3.org/2000/svg" width="208.218" height="94.898" viewBox="0 0 208.218 94.898">
  <g id="Group_14279" data-name="Group 14279" transform="translate(-28.547 -39.963)">
    <g id="Group_14277" data-name="Group 14277" transform="translate(28.547 39.963)">
      <path id="Path_10545" data-name="Path 10545" d="M71.312,67.786a23.686,23.686,0,0,0-13.791,8.773Q55.88,70.148,54.23,63.73h-.922L49.7,76.454a41.722,41.722,0,0,0-13.759-8.547c4.386-12.072,7.364-20.241,7.686-21.328a2.569,2.569,0,0,1,.885-1.328,2.469,2.469,0,0,1,1.529-.362c4.507.08,9.054.121,13.6,0a2.8,2.8,0,0,1,1.65.362A2.472,2.472,0,0,1,62.3,46.74C62.757,48.209,66.3,56.39,71.312,67.786Z" transform="translate(-6.177 -25.086)" fill="#1a77e5"/>
      <path id="Path_10546" data-name="Path 10546" d="M31.767,52.294A33.385,33.385,0,0,1,66.149,69.039a33.627,33.627,0,0,1,10.535-12.31c10.141-7.175,21.091-6.221,24.068-5.863V69.047C85.711,69,73.811,74.6,66.222,88.181,58.656,74.652,46.854,69.039,31.767,69.055Z" transform="translate(-18.809 -7.747)" fill="#a2d4f8"/>
      <g id="Group_14276" data-name="Group 14276">
        <path id="Path_10547" data-name="Path 10547" d="M95.412,134.861H56.583a28.066,28.066,0,0,1-28.036-28.036V68A28.066,28.066,0,0,1,56.583,39.963H95.412A28.066,28.066,0,0,1,123.449,68v38.825A28.066,28.066,0,0,1,95.412,134.861ZM56.583,43.987A24.04,24.04,0,0,0,32.571,68v38.825a24.04,24.04,0,0,0,24.012,24.012H95.412a24.04,24.04,0,0,0,24.012-24.012V68A24.04,24.04,0,0,0,95.412,43.987Z" transform="translate(-28.547 -39.963)" fill="#1a77e5"/>
      </g>
    </g>
    <g id="Group_14278" data-name="Group 14278" transform="translate(136.74 87.897)">
      <path id="Path_10548" data-name="Path 10548" d="M69.318,54.451h2.968l4.492,16.488H74.821l-1.147-4.362H67.918l-1.16,4.362H64.794Zm3.908,10.461-2.418-9.184-2.443,9.184Z" transform="translate(-64.794 -53.518)" fill="#1a77e5"/>
      <path id="Path_10549" data-name="Path 10549" d="M66.952,61.226a5.794,5.794,0,0,1,6.079-6.086c3.429,0,5.47,2.372,5.47,4.466v.078H76.616a2.754,2.754,0,0,0-.032-.285c-.188-1.478-1.6-2.515-3.565-2.515a3.977,3.977,0,0,0-4.135,4.342c0,2.93,1.905,4.42,4.135,4.42,2.4,0,3.513-1.283,3.6-2.742H78.5c0,2.152-1.918,4.485-5.47,4.485A5.843,5.843,0,0,1,66.952,61.226Z" transform="translate(-52.965 -49.741)" fill="#1a77e5"/>
      <path id="Path_10550" data-name="Path 10550" d="M69.147,63.825c0-2.314,1.925-3.429,4.841-3.72s4.031-.493,4.031-1.147v-.039c0-1.368-1.147-2.035-3.254-2.035-2.21,0-3.48.726-3.48,2.43H69.413c0-2.644,2.2-4.174,5.36-4.174,2.891,0,5.153,1.355,5.153,3.882v5.911a5.033,5.033,0,0,0,.149,1.406,2.163,2.163,0,0,0,.421.823H78.59a2.9,2.9,0,0,1-.382-.752,2.434,2.434,0,0,1-.13-.655,5.687,5.687,0,0,1-4.453,1.633C70.923,67.39,69.147,66.054,69.147,63.825Zm8.873-1.257V61.077a19.121,19.121,0,0,1-3.578.59c-2.249.207-3.39.674-3.39,2.048,0,1.29.914,1.964,2.878,1.964C76.225,65.679,78.02,64.622,78.02,62.568Z" transform="translate(-40.934 -49.741)" fill="#1a77e5"/>
      <path id="Path_10551" data-name="Path 10551" d="M71.235,65.792c0-3.9,2.463-6.086,5.341-6.086a5.369,5.369,0,0,1,3.876,1.659V54.307h1.905V71.729H80.451V70.244a5.168,5.168,0,0,1-3.876,1.711C73.653,71.956,71.235,69.778,71.235,65.792Zm9.216.791V64.9a3.589,3.589,0,0,0-3.61-3.455c-2.106,0-3.655,1.393-3.655,4.342s1.562,4.362,3.655,4.362A3.586,3.586,0,0,0,80.451,66.583Z" transform="translate(-29.489 -54.307)" fill="#1a77e5"/>
      <path id="Path_10552" data-name="Path 10552" d="M79.459,67.4a6.128,6.128,0,0,1,.013-12.256,5.636,5.636,0,0,1,5.853,6c0,.233-.026.726-.045.856H75.291a3.924,3.924,0,0,0,4.219,3.655c2.508,0,3.63-1.18,3.74-2.21h1.893C84.987,65.335,83.056,67.4,79.459,67.4Zm-4.135-7.09h7.959a3.537,3.537,0,0,0-3.792-3.448A3.959,3.959,0,0,0,75.323,60.306Z" transform="translate(-17.595 -49.741)" fill="#1a77e5"/>
      <path id="Path_10553" data-name="Path 10553" d="M75.71,55.321H77.6v1.517a4.241,4.241,0,0,1,3.422-1.7A3.4,3.4,0,0,1,84.518,57.3a4.226,4.226,0,0,1,3.733-2.158c2.554,0,3.889,1.588,3.889,4.07v7.953H90.248V59.839c0-1.16-.091-2.891-2.4-2.891s-2.975,1.97-2.975,3.474v6.741H82.988V59.878c0-1.167-.136-2.93-2.353-2.93-2.262,0-3.033,1.964-3.033,3.636v6.579H75.71Z" transform="translate(-4.96 -49.741)" fill="#1a77e5"/>
      <path id="Path_10554" data-name="Path 10554" d="M78.558,71.857V70.2a3.361,3.361,0,0,0,1.154.162c1.413,0,2.139-.972,2.573-2.243l.356-1.05L78.558,55.168h1.99l3.137,9.78,3.079-9.78h1.951L84.378,68.02C83.646,70.185,82.661,72,79.835,72A4.639,4.639,0,0,1,78.558,71.857Z" transform="translate(10.65 -49.588)" fill="#1a77e5"/>
    </g>
    <g id="Group_32" data-name="Group 32" transform="translate(136.74 58.319)">
      <g id="Group_30" data-name="Group 30">
        <path id="Path_242" data-name="Path 242" d="M71.924,66.246H61.53L59.421,71.9H55.433l9.461-24.672h3.952L78.266,71.9H74.037ZM70.745,63.1,66.761,52.387,62.745,63.1Z" transform="translate(-55.433 -46.15)" fill="#1a77e5"/>
        <path id="Path_243" data-name="Path 243" d="M78.227,56.345v10.6H74.416V57.142c0-3.328-1.7-4.954-4.294-4.954-2.946,0-4.539,2.076-4.539,5.231v9.529H61.8V49.206h3.433l.278,2.39c1-1.7,2.909-2.736,5.614-2.736C75.595,48.86,78.227,51.806,78.227,56.345Z" transform="translate(-36.166 -41.202)" fill="#1a77e5"/>
        <path id="Path_244" data-name="Path 244" d="M75.631,52.143c-2.946,0-4.954,2.149-4.954,5.928,0,3.984,2.08,5.924,4.849,5.924A4.594,4.594,0,0,0,80.1,60.388h4.02A8.33,8.33,0,0,1,75.6,67.322c-5.268,0-8.8-3.674-8.8-9.252,0-5.545,3.533-9.219,8.833-9.219a8.2,8.2,0,0,1,8.491,6.757H80.033A4.455,4.455,0,0,0,75.631,52.143Z" transform="translate(-21.064 -41.229)" fill="#1a77e5"/>
        <path id="Path_245" data-name="Path 245" d="M71.9,47.138H76.1V51.09H71.9Zm.209,7.28h3.775V72.156H72.108Z" transform="translate(-5.625 -46.41)" fill="#1a77e5"/>
        <path id="Path_246" data-name="Path 246" d="M77.8,72.7H74.021V46.957H77.8Z" transform="translate(0.78 -46.957)" fill="#1a77e5"/>
        <path id="Path_247" data-name="Path 247" d="M93.387,59.145H79.805A4.772,4.772,0,0,0,84.827,64.2a4.543,4.543,0,0,0,4.539-2.913h3.847c-.938,3.606-4.125,6.028-8.455,6.028-5.3,0-8.8-3.67-8.8-9.252,0-5.541,3.5-9.215,8.765-9.215,5.163,0,8.664,3.533,8.664,8.869ZM79.837,56.509h9.7a4.58,4.58,0,0,0-4.813-4.64A4.7,4.7,0,0,0,79.837,56.509Z" transform="translate(6.638 -41.229)" fill="#1a77e5"/>
      </g>
    </g>
  </g>
</svg>
